# xmcd
#
# Track frame offsets:
#	150
#	17620
#	36195
#	58997
#	74355
#	95487
#	111825
#	135337
#	155190
#	181482
#
# Disc length: 2498 seconds
#
# Revision: 1
# Processed by: cddbd v1.5.1PL0 Copyright (c) Steve Scherf et al.
# Submitted via: CDex 1.50Beta5
#
DISCID=8b09c00a
DTITLE=スーザン・オズボーン - 浜辺の歌〜ベスト・セレクション
DYEAR=2001
DGENRE=Vocal
TTITLE0=浜辺の歌
TTITLE1=故郷
TTITLE2=「四季」〜冬 第2楽章
TTITLE3=春が来た
TTITLE4=ラヴ・イズ・モア・ザン・ディス
TTITLE5=五木の子守唄
TTITLE6=亡き王女のためのパヴァーヌ
TTITLE7=アヴェ・マリア
TTITLE8=仰げば尊し
TTITLE9=星に願いを
EXTD=
EXTT0=
EXTT1=
EXTT2=
EXTT3=
EXTT4=
EXTT5=
EXTT6=
EXTT7=
EXTT8=
EXTT9=
PLAYORDER=
